# xmcd
#
# Track frame offsets: 
#        150
#        21205
#        31990
#        61739
#        75774
#        89649
#        125922
#        138832
#        153082
#        164110
#
# Disc length: 2498 seconds
#
# Revision: 0
# Processed by: cddbd v1.5.1PL0 Copyright (c) Steve Scherf et al.
# Submitted via: ExactAudioCopy v0.95a5
#
DISCID=7809c00a
DTITLE=Blues Affection - Tales Of The Yellow Moon
DYEAR=1997
DGENRE=Blues
TTITLE0=Falcon Song
TTITLE1=Diary Of A Loser
TTITLE2=Nocturne (Son Of The Moon)
TTITLE3=S.O.S.
TTITLE4=La Petite and Belle
TTITLE5=Tales Of The Yellow Moon
TTITLE6=Sapfo
TTITLE7=Waterfalls
TTITLE8=Ri-Ri Man
TTITLE9=Gypsy Moon (In 3 Colors)
EXTD=
EXTT0=
EXTT1=
EXTT2=
EXTT3=
EXTT4=
EXTT5=
EXTT6=
EXTT7=
EXTT8=
EXTT9=
PLAYORDER=
